{
  "accessors": [
    {
      "bufferView": 1,
      "componentType": 5126,
      "count": 702,
      "max": [
        61.249000549316406,
        -1.7425999641418457,
        59.52399826049805
      ],
      "min": [
        -56.29899978637695,
        -11.734199523925781,
        -58.02399826049805
      ],
      "type": "VEC3"
    },
    {
      "bufferView": 1,
      "byteOffset": 8424,
      "componentType": 5126,
      "count": 702,
      "max": [
        0.9998478889465332,
        1.0,
        0.999850332736969
      ],
      "min": [
        -0.9998777508735657,
        -0.9973946809768677,
        -0.9998601675033569
      ],
      "type": "VEC3"
    },
    {
      "bufferView": 0,
      "componentType": 5125,
      "count": 1752,
      "type": "SCALAR"
    },
    {
      "bufferView": 1,
      "byteOffset": 16848,
      "componentType": 5126,
      "count": 1547,
      "max": [
        61.249000549316406,
        -0.0,
        59.52399826049805
      ],
      "min": [
        -56.29899978637695,
        -14.0,
        -58.02399826049805
      ],
      "type": "VEC3"
    },
    {
      "bufferView": 1,
      "byteOffset": 35412,
      "componentType": 5126,
      "count": 1547,
      "max": [
        0.999986469745636,
        1.0,
        0.9999963641166687
      ],
      "min": [
        -0.9999863505363464,
        -1.0,
        -0.9999885559082031
      ],
      "type": "VEC3"
    },
    {
      "bufferView": 0,
      "byteOffset": 7008,
      "componentType": 5125,
      "count": 4305,
      "type": "SCALAR"
    }
  ],
  "asset": {
    "extras": {
      "author": "Remaxp36 (https://sketchfab.com/Remaxp36)",
      "license": "CC-BY-4.0 (http://creativecommons.org/licenses/by/4.0/)",
      "source": "https://sketchfab.com/3d-models/shuriken-e87c46a583344886b854ae94c7a737c9",
      "title": "Shuriken"
    },
    "generator": "Sketchfab-13.80.0",
    "version": "2.0"
  },
  "bufferViews": [
    {
      "buffer": 0,
      "byteLength": 24228,
      "name": "floatBufferViews",
      "target": 34963
    },
    {
      "buffer": 0,
      "byteLength": 53976,
      "byteOffset": 24228,
      "byteStride": 12,
      "name": "floatBufferViews",
      "target": 34962
    }
  ],
  "buffers": [
    {
      "byteLength": 78204,
      "uri": "scene.bin"
    }
  ],
  "extensionsUsed": [
    "KHR_materials_clearcoat"
  ],
  "materials": [
    {
      "doubleSided": true,
      "name": "color_2829873",
      "pbrMetallicRoughness": {
        "baseColorFactor": [
          0.10729641482064672,
          0.10780319675440503,
          0.10829235995947611,
          1.0
        ],
        "metallicFactor": 0.0,
        "roughnessFactor": 0.0
      }
    },
    {
      "doubleSided": true,
      "extensions": {
        "KHR_materials_clearcoat": {
          "clearcoatFactor": 1.0,
          "clearcoatRoughnessFactor": 0.04
        }
      },
      "name": "color_6383466",
      "pbrMetallicRoughness": {
        "baseColorFactor": [
          0.3052835848314484,
          0.3052835848314484,
          0.3052835848314484,
          1.0
        ],
        "metallicFactor": 0.0,
        "roughnessFactor": 0.0
      }
    }
  ],
  "meshes": [
    {
      "name": "Object_0",
      "primitives": [
        {
          "attributes": {
            "NORMAL": 1,
            "POSITION": 0
          },
          "indices": 2,
          "material": 0,
          "mode": 4
        }
      ]
    },
    {
      "name": "Object_1",
      "primitives": [
        {
          "attributes": {
            "NORMAL": 4,
            "POSITION": 3
          },
          "indices": 5,
          "material": 1,
          "mode": 4
        }
      ]
    }
  ],
  "nodes": [
    {
      "children": [
        1
      ],
      "matrix": [
        1.0,
        0.0,
        0.0,
        0.0,
        0.0,
        -1.0,
        -4.440892098500626e-16,
        0.0,
        0.0,
        4.440892098500626e-16,
        -1.0,
        0.0,
        0.0,
        0.0,
        0.0,
        1.0
      ],
      "name": "Sketchfab_model"
    },
    {
      "children": [
        2,
        3
      ],
      "name": "tinker.obj.cleaner.materialmerger.gles"
    },
    {
      "mesh": 0,
      "name": "Object_2"
    },
    {
      "mesh": 1,
      "name": "Object_3"
    }
  ],
  "scene": 0,
  "scenes": [
    {
      "name": "Sketchfab_Scene",
      "nodes": [
        0
      ]
    }
  ]
}
