{
  "accessors": [
    {
      "bufferView": 2,
      "componentType": 5126,
      "count": 9652,
      "max": [
        13.64898681640625,
        53.44629669189453,
        69.5989990234375
      ],
      "min": [
        -13.556937217712402,
        -13.67862319946289,
        -4.693814277648926
      ],
      "type": "VEC3"
    },
    {
      "bufferView": 2,
      "byteOffset": 115824,
      "componentType": 5126,
      "count": 9652,
      "max": [
        1.0,
        1.0,
        1.0
      ],
      "min": [
        -1.0,
        -1.0,
        -1.0
      ],
      "type": "VEC3"
    },
    {
      "bufferView": 3,
      "componentType": 5126,
      "count": 9652,
      "max": [
        0.9999985694885254,
        0.9999944567680359,
        0.9999992847442627,
        1.0
      ],
      "min": [
        -1.0,
        -0.9999513030052185,
        -0.9999997615814209,
        -1.0
      ],
      "type": "VEC4"
    },
    {
      "bufferView": 1,
      "componentType": 5126,
      "count": 9652,
      "max": [
        0.9877269268035889,
        0.9862048029899597
      ],
      "min": [
        0.015186798758804798,
        0.010154825635254383
      ],
      "type": "VEC2"
    },
    {
      "bufferView": 1,
      "byteOffset": 77216,
      "componentType": 5126,
      "count": 9652,
      "max": [
        0.9877269268035889,
        0.9862048029899597
      ],
      "min": [
        0.015186798758804798,
        0.010154825635254383
      ],
      "type": "VEC2"
    },
    {
      "bufferView": 0,
      "componentType": 5125,
      "count": 28920,
      "type": "SCALAR"
    }
  ],
  "asset": {
    "extras": {
      "author": "BojanBabic (https://sketchfab.com/bokadigimon)",
      "license": "CC-BY-4.0 (http://creativecommons.org/licenses/by/4.0/)",
      "source": "https://sketchfab.com/3d-models/hedge-arch-ca7ebc7e2aa24a83b3b603993d260f74",
      "title": "Hedge Arch"
    },
    "generator": "Sketchfab-13.68.0",
    "version": "2.0"
  },
  "bufferViews": [
    {
      "buffer": 0,
      "byteLength": 115680,
      "name": "floatBufferViews",
      "target": 34963
    },
    {
      "buffer": 0,
      "byteLength": 154432,
      "byteOffset": 115680,
      "byteStride": 8,
      "name": "floatBufferViews",
      "target": 34962
    },
    {
      "buffer": 0,
      "byteLength": 231648,
      "byteOffset": 270112,
      "byteStride": 12,
      "name": "floatBufferViews",
      "target": 34962
    },
    {
      "buffer": 0,
      "byteLength": 154432,
      "byteOffset": 501760,
      "byteStride": 16,
      "name": "floatBufferViews",
      "target": 34962
    }
  ],
  "buffers": [
    {
      "byteLength": 656192,
      "uri": "scene.bin"
    }
  ],
  "images": [
    {
      "uri": "textures/13_-_Default_baseColor.png"
    },
    {
      "uri": "textures/13_-_Default_normal.png"
    }
  ],
  "materials": [
    {
      "alphaCutoff": 0.4678109495190842,
      "alphaMode": "MASK",
      "doubleSided": true,
      "name": "13_-_Default",
      "normalTexture": {
        "index": 1
      },
      "pbrMetallicRoughness": {
        "baseColorTexture": {
          "index": 0
        },
        "metallicFactor": 0.0,
        "roughnessFactor": 0.8929713596497552
      }
    }
  ],
  "meshes": [
    {
      "name": "HedgeArch_13 - Default_0",
      "primitives": [
        {
          "attributes": {
            "NORMAL": 1,
            "POSITION": 0,
            "TANGENT": 2,
            "TEXCOORD_0": 3,
            "TEXCOORD_1": 4
          },
          "indices": 5,
          "material": 0,
          "mode": 4
        }
      ]
    }
  ],
  "nodes": [
    {
      "children": [
        1
      ],
      "matrix": [
        0.051819343119859695,
        0.0,
        0.0,
        0.0,
        0.0,
        1.1506205570523885e-17,
        -0.051819343119859695,
        0.0,
        0.0,
        0.051819343119859695,
        1.1506205570523885e-17,
        0.0,
        0.0,
        0.0,
        0.0,
        1.0
      ],
      "name": "Sketchfab_model"
    },
    {
      "children": [
        2
      ],
      "matrix": [
        1.0,
        0.0,
        0.0,
        0.0,
        0.0,
        0.0,
        1.0,
        0.0,
        0.0,
        -1.0,
        0.0,
        0.0,
        0.0,
        0.0,
        0.0,
        1.0
      ],
      "name": "e7dec950a42748de8ca5c13d066f538d.fbx"
    },
    {
      "children": [
        3
      ],
      "name": "RootNode"
    },
    {
      "children": [
        4
      ],
      "matrix": [
        1.0,
        0.0,
        0.0,
        0.0,
        0.0,
        2.220446049250313e-16,
        -1.0,
        0.0,
        0.0,
        1.0,
        2.220446049250313e-16,
        0.0,
        0.0,
        0.0,
        0.0,
        1.0
      ],
      "name": "HedgeArch"
    },
    {
      "children": [
        5
      ],
      "matrix": [
        1.0,
        0.0,
        -0.0,
        0.0,
        0.0,
        1.0,
        0.0,
        0.0,
        0.0,
        0.0,
        1.0,
        0.0,
        0.0,
        -20.0,
        0.0,
        1.0
      ],
      "name": "Object_4"
    },
    {
      "mesh": 0,
      "name": "HedgeArch_13 - Default_0"
    }
  ],
  "samplers": [
    {
      "magFilter": 9729,
      "minFilter": 9987,
      "wrapS": 10497,
      "wrapT": 10497
    }
  ],
  "scene": 0,
  "scenes": [
    {
      "name": "Sketchfab_Scene",
      "nodes": [
        0
      ]
    }
  ],
  "textures": [
    {
      "sampler": 0,
      "source": 0
    },
    {
      "sampler": 0,
      "source": 1
    }
  ]
}
