{
  "accessors": [
    {
      "bufferView": 2,
      "componentType": 5126,
      "count": 88,
      "max": [
        0.7810149788856506,
        1.3902701139450073,
        0.13568000495433807
      ],
      "min": [
        0.6950439810752869,
        1.3474398851394653,
        -0.24480900168418884
      ],
      "type": "VEC3"
    },
    {
      "bufferView": 2,
      "byteOffset": 1056,
      "componentType": 5126,
      "count": 88,
      "max": [
        0.7071075439453125,
        1.0,
        0.7071153521537781
      ],
      "min": [
        -0.7070983648300171,
        -1.0,
        -0.7071158289909363
      ],
      "type": "VEC3"
    },
    {
      "bufferView": 1,
      "componentType": 5126,
      "count": 88,
      "max": [
        0.49740099906921387,
        0.1006930023431778
      ],
      "min": [
        0.2539219856262207,
        0.004693000111728907
      ],
      "type": "VEC2"
    },
    {
      "bufferView": 1,
      "byteOffset": 704,
      "componentType": 5126,
      "count": 88,
      "max": [
        0.49740099906921387,
        0.1006930023431778
      ],
      "min": [
        0.2539219856262207,
        0.004693000111728907
      ],
      "type": "VEC2"
    },
    {
      "bufferView": 0,
      "componentType": 5125,
      "count": 120,
      "type": "SCALAR"
    },
    {
      "bufferView": 2,
      "byteOffset": 2112,
      "componentType": 5126,
      "count": 88,
      "max": [
        -0.6950439810752869,
        1.3902701139450073,
        0.13568000495433807
      ],
      "min": [
        -0.7810149788856506,
        1.3474398851394653,
        -0.24480900168418884
      ],
      "type": "VEC3"
    },
    {
      "bufferView": 2,
      "byteOffset": 3168,
      "componentType": 5126,
      "count": 88,
      "max": [
        0.7070983648300171,
        1.0,
        0.7071153521537781
      ],
      "min": [
        -0.7071075439453125,
        -1.0,
        -0.7071158289909363
      ],
      "type": "VEC3"
    },
    {
      "bufferView": 1,
      "byteOffset": 1408,
      "componentType": 5126,
      "count": 88,
      "max": [
        0.49740099906921387,
        0.1006930023431778
      ],
      "min": [
        0.2539219856262207,
        0.004693000111728907
      ],
      "type": "VEC2"
    },
    {
      "bufferView": 1,
      "byteOffset": 2112,
      "componentType": 5126,
      "count": 88,
      "max": [
        0.49740099906921387,
        0.1006930023431778
      ],
      "min": [
        0.2539219856262207,
        0.004693000111728907
      ],
      "type": "VEC2"
    },
    {
      "bufferView": 0,
      "byteOffset": 480,
      "componentType": 5125,
      "count": 120,
      "type": "SCALAR"
    },
    {
      "bufferView": 2,
      "byteOffset": 4224,
      "componentType": 5126,
      "count": 120,
      "max": [
        -0.7196210026741028,
        1.3708100318908691,
        0.7915459871292114
      ],
      "min": [
        -0.756496012210846,
        1.3566499948501587,
        -0.1322920024394989
      ],
      "type": "VEC3"
    },
    {
      "bufferView": 2,
      "byteOffset": 5664,
      "componentType": 5126,
      "count": 120,
      "max": [
        1.0,
        1.0,
        1.0
      ],
      "min": [
        -1.0,
        -1.0,
        -1.0
      ],
      "type": "VEC3"
    },
    {
      "bufferView": 1,
      "byteOffset": 2816,
      "componentType": 5126,
      "count": 120,
      "max": [
        0.3154659867286682,
        0.3086960017681122
      ],
      "min": [
        0.253728985786438,
        0.0092569999396801
      ],
      "type": "VEC2"
    },
    {
      "bufferView": 1,
      "byteOffset": 3776,
      "componentType": 5126,
      "count": 120,
      "max": [
        0.3154659867286682,
        0.3086960017681122
      ],
      "min": [
        0.253728985786438,
        0.0092569999396801
      ],
      "type": "VEC2"
    },
    {
      "bufferView": 0,
      "byteOffset": 960,
      "componentType": 5125,
      "count": 234,
      "type": "SCALAR"
    },
    {
      "bufferView": 2,
      "byteOffset": 7104,
      "componentType": 5126,
      "count": 1033,
      "max": [
        0.679144024848938,
        1.453529953956604,
        0.14791400730609894
      ],
      "min": [
        -0.6791449785232544,
        0.25959399342536926,
        -0.15348701179027557
      ],
      "type": "VEC3"
    },
    {
      "bufferView": 2,
      "byteOffset": 19500,
      "componentType": 5126,
      "count": 1033,
      "max": [
        0.9999649524688721,
        0.9999752044677734,
        0.999843180179596
      ],
      "min": [
        -0.9999650716781616,
        -0.9729673266410828,
        -0.9996150732040405
      ],
      "type": "VEC3"
    },
    {
      "bufferView": 1,
      "byteOffset": 4736,
      "componentType": 5126,
      "count": 1033,
      "max": [
        0.9921029806137085,
        0.9958360195159912
      ],
      "min": [
        0.005160999950021505,
        0.008999000303447247
      ],
      "type": "VEC2"
    },
    {
      "bufferView": 1,
      "byteOffset": 13000,
      "componentType": 5126,
      "count": 1033,
      "max": [
        0.9921029806137085,
        0.9958360195159912
      ],
      "min": [
        0.005160999950021505,
        0.008999000303447247
      ],
      "type": "VEC2"
    },
    {
      "bufferView": 0,
      "byteOffset": 1896,
      "componentType": 5125,
      "count": 3846,
      "type": "SCALAR"
    },
    {
      "bufferView": 2,
      "byteOffset": 31896,
      "componentType": 5126,
      "count": 3374,
      "max": [
        0.8563929796218872,
        1.7412300109863281,
        0.21227000653743744
      ],
      "min": [
        -0.8563929796218872,
        0.0020099885296076536,
        -0.16995900869369507
      ],
      "type": "VEC3"
    },
    {
      "bufferView": 2,
      "byteOffset": 72384,
      "componentType": 5126,
      "count": 3374,
      "max": [
        0.9995424747467041,
        0.9999717473983765,
        1.0
      ],
      "min": [
        -0.9995424747467041,
        -1.0,
        -1.0
      ],
      "type": "VEC3"
    },
    {
      "bufferView": 1,
      "byteOffset": 21264,
      "componentType": 5126,
      "count": 3374,
      "max": [
        0.9974700212478638,
        0.9939020276069641
      ],
      "min": [
        0.005979999899864197,
        0.00851999968290329
      ],
      "type": "VEC2"
    },
    {
      "bufferView": 1,
      "byteOffset": 48256,
      "componentType": 5126,
      "count": 3374,
      "max": [
        0.9974700212478638,
        0.9939020276069641
      ],
      "min": [
        0.005979999899864197,
        0.00851999968290329
      ],
      "type": "VEC2"
    },
    {
      "bufferView": 0,
      "byteOffset": 17280,
      "componentType": 5125,
      "count": 8520,
      "type": "SCALAR"
    },
    {
      "bufferView": 2,
      "byteOffset": 112872,
      "componentType": 5126,
      "count": 72,
      "max": [
        0.07758499681949615,
        1.6301300525665283,
        0.10071499645709991
      ],
      "min": [
        -0.07758499681949615,
        1.5427900552749634,
        0.008685998618602753
      ],
      "type": "VEC3"
    },
    {
      "bufferView": 2,
      "byteOffset": 113736,
      "componentType": 5126,
      "count": 72,
      "max": [
        0.9854560494422913,
        -0.03116333670914173,
        0.9987501502037048
      ],
      "min": [
        -0.985456109046936,
        -0.44639721512794495,
        0.14922291040420532
      ],
      "type": "VEC3"
    },
    {
      "bufferView": 1,
      "byteOffset": 75248,
      "componentType": 5126,
      "count": 72,
      "max": [
        0.978896975517273,
        0.9893779754638672
      ],
      "min": [
        0.02122499980032444,
        0.016481999307870865
      ],
      "type": "VEC2"
    },
    {
      "bufferView": 1,
      "byteOffset": 75824,
      "componentType": 5126,
      "count": 72,
      "max": [
        0.978896975517273,
        0.9893779754638672
      ],
      "min": [
        0.02122499980032444,
        0.016481999307870865
      ],
      "type": "VEC2"
    },
    {
      "bufferView": 0,
      "byteOffset": 51360,
      "componentType": 5125,
      "count": 300,
      "type": "SCALAR"
    },
    {
      "bufferView": 3,
      "componentType": 5126,
      "count": 1,
      "max": [
        1.0,
        0.0,
        0.0,
        0.0,
        0.0,
        1.0,
        0.0,
        0.0,
        0.0,
        0.0,
        1.0,
        0.0,
        0.0,
        0.0,
        0.0,
        1.0
      ],
      "min": [
        1.0,
        0.0,
        0.0,
        0.0,
        0.0,
        1.0,
        0.0,
        0.0,
        0.0,
        0.0,
        1.0,
        0.0,
        0.0,
        0.0,
        0.0,
        1.0
      ],
      "type": "MAT4"
    }
  ],
  "asset": {
    "extras": {
      "author": "djidol (https://sketchfab.com/djidol)",
      "license": "CC-BY-4.0 (http://creativecommons.org/licenses/by/4.0/)",
      "source": "https://sketchfab.com/3d-models/naruto-shippuuden-sasuke-3d7f9207d4b94a92b934e83041722e8f",
      "title": "Naruto Shippuuden - Sasuke"
    },
    "generator": "Sketchfab-12.68.0",
    "version": "2.0"
  },
  "bufferViews": [
    {
      "buffer": 0,
      "byteLength": 52560,
      "name": "floatBufferViews",
      "target": 34963
    },
    {
      "buffer": 0,
      "byteLength": 76400,
      "byteOffset": 52560,
      "byteStride": 8,
      "name": "floatBufferViews",
      "target": 34962
    },
    {
      "buffer": 0,
      "byteLength": 114600,
      "byteOffset": 128960,
      "byteStride": 12,
      "name": "floatBufferViews",
      "target": 34962
    },
    {
      "buffer": 0,
      "byteLength": 64,
      "byteOffset": 243560,
      "name": "floatBufferViews"
    }
  ],
  "buffers": [
    {
      "byteLength": 243624,
      "uri": "scene.bin"
    }
  ],
  "images": [
    {
      "uri": "textures/ssk_tex02.pngmat_baseColor.png"
    },
    {
      "uri": "textures/ssk_tex01.pngmat_baseColor.png"
    },
    {
      "uri": "textures/ssk_eye.pngmat_baseColor.png"
    }
  ],
  "materials": [
    {
      "doubleSided": true,
      "name": "ssk_tex02.pngmat",
      "pbrMetallicRoughness": {
        "baseColorTexture": {
          "index": 0
        },
        "metallicFactor": 0.0,
        "roughnessFactor": 0.9746230896774265
      }
    },
    {
      "doubleSided": true,
      "name": "ssk_tex02.pngmat_0",
      "pbrMetallicRoughness": {
        "baseColorTexture": {
          "index": 0
        },
        "metallicFactor": 0.0,
        "roughnessFactor": 0.9746230896774265
      }
    },
    {
      "doubleSided": true,
      "name": "ssk_tex02.pngmat_1",
      "pbrMetallicRoughness": {
        "baseColorTexture": {
          "index": 0
        },
        "metallicFactor": 0.0,
        "roughnessFactor": 0.9746230896774265
      }
    },
    {
      "doubleSided": true,
      "name": "ssk_tex01.pngmat",
      "pbrMetallicRoughness": {
        "baseColorTexture": {
          "index": 1
        },
        "metallicFactor": 0.0,
        "roughnessFactor": 0.9746230896774265
      }
    },
    {
      "doubleSided": true,
      "name": "ssk_tex02.pngmat_2",
      "pbrMetallicRoughness": {
        "baseColorTexture": {
          "index": 0
        },
        "metallicFactor": 0.0,
        "roughnessFactor": 0.9746230896774265
      }
    },
    {
      "doubleSided": true,
      "name": "ssk_eye.pngmat",
      "pbrMetallicRoughness": {
        "baseColorTexture": {
          "index": 2
        },
        "metallicFactor": 0.0,
        "roughnessFactor": 0.9746230896774265
      }
    }
  ],
  "meshes": [
    {
      "name": "Object_0",
      "primitives": [
        {
          "attributes": {
            "NORMAL": 1,
            "POSITION": 0,
            "TEXCOORD_0": 2,
            "TEXCOORD_1": 3
          },
          "indices": 4,
          "material": 0,
          "mode": 4
        }
      ]
    },
    {
      "name": "Object_1",
      "primitives": [
        {
          "attributes": {
            "NORMAL": 6,
            "POSITION": 5,
            "TEXCOORD_0": 7,
            "TEXCOORD_1": 8
          },
          "indices": 9,
          "material": 1,
          "mode": 4
        }
      ]
    },
    {
      "name": "Object_2",
      "primitives": [
        {
          "attributes": {
            "NORMAL": 11,
            "POSITION": 10,
            "TEXCOORD_0": 12,
            "TEXCOORD_1": 13
          },
          "indices": 14,
          "material": 2,
          "mode": 4
        }
      ]
    },
    {
      "name": "Object_3",
      "primitives": [
        {
          "attributes": {
            "NORMAL": 16,
            "POSITION": 15,
            "TEXCOORD_0": 17,
            "TEXCOORD_1": 18
          },
          "indices": 19,
          "material": 3,
          "mode": 4
        }
      ]
    },
    {
      "name": "Object_4",
      "primitives": [
        {
          "attributes": {
            "NORMAL": 21,
            "POSITION": 20,
            "TEXCOORD_0": 22,
            "TEXCOORD_1": 23
          },
          "indices": 24,
          "material": 4,
          "mode": 4
        }
      ]
    },
    {
      "name": "Object_5",
      "primitives": [
        {
          "attributes": {
            "NORMAL": 26,
            "POSITION": 25,
            "TEXCOORD_0": 27,
            "TEXCOORD_1": 28
          },
          "indices": 29,
          "material": 5,
          "mode": 4
        }
      ]
    }
  ],
  "nodes": [
    {
      "children": [
        1
      ],
      "matrix": [
        1.0,
        0.0,
        0.0,
        0.0,
        0.0,
        2.220446049250313e-16,
        -1.0,
        0.0,
        0.0,
        1.0,
        2.220446049250313e-16,
        0.0,
        0.0,
        0.0,
        0.0,
        1.0
      ],
      "name": "Sketchfab_model"
    },
    {
      "children": [
        2
      ],
      "matrix": [
        1.0,
        0.0,
        0.0,
        0.0,
        0.0,
        0.0,
        1.0,
        0.0,
        0.0,
        -1.0,
        0.0,
        0.0,
        0.0,
        0.0,
        0.0,
        1.0
      ],
      "name": "10521b24511a4bd4bf9b842649b3abf1.fbx"
    },
    {
      "children": [
        3
      ],
      "name": "RootNode"
    },
    {
      "children": [
        4,
        5,
        7,
        9,
        11
      ],
      "name": "Object_3"
    },
    {
      "name": "_rootJoint"
    },
    {
      "children": [
        6
      ],
      "matrix": [
        1.0000000000000002,
        0.0,
        2.6020852139652106e-18,
        0.0,
        1.8055593228630333e-35,
        1.0,
        -6.938893903907228e-18,
        0.0,
        -2.6020852139652103e-18,
        6.938893903907228e-18,
        1.0,
        0.0,
        -1.1102230246251565e-16,
        0.0,
        3.642919299551295e-17,
        1.0
      ],
      "name": "Object_5"
    },
    {
      "mesh": 0,
      "name": "Object_6"
    },
    {
      "children": [
        8
      ],
      "matrix": [
        0.9999999999999999,
        1.3877787807814457e-17,
        0.0,
        0.0,
        -1.3877787807814457e-17,
        0.9999999999999999,
        0.0,
        0.0,
        0.0,
        0.0,
        0.9999999999999999,
        0.0,
        -1.1102230246251565e-16,
        2.220446049250313e-16,
        -3.8163916471489756e-17,
        1.0
      ],
      "name": "Object_7"
    },
    {
      "mesh": 1,
      "name": "Object_8"
    },
    {
      "children": [
        10
      ],
      "matrix": [
        1.0,
        0.0,
        1.3010426069826053e-18,
        0.0,
        0.0,
        1.0000000000000002,
        0.0,
        0.0,
        -1.3010426069826053e-18,
        0.0,
        1.0,
        0.0,
        5.551115123125783e-17,
        0.0,
        1.734723475976807e-18,
        1.0
      ],
      "name": "Object_9"
    },
    {
      "mesh": 2,
      "name": "Object_10"
    },
    {
      "children": [
        12,
        13,
        14
      ],
      "matrix": [
        1.0,
        -1.0032582094339142e-17,
        -9.152492916006297e-19,
        0.0,
        1.0032582094339142e-17,
        1.0,
        0.0,
        0.0,
        9.152492916006297e-19,
        -9.182313654769062e-36,
        1.0,
        0.0,
        3.122502256758253e-17,
        0.0,
        0.0,
        1.0
      ],
      "name": "Object_11"
    },
    {
      "mesh": 3,
      "name": "Object_12"
    },
    {
      "mesh": 4,
      "name": "Object_13"
    },
    {
      "mesh": 5,
      "name": "Object_14"
    }
  ],
  "samplers": [
    {
      "magFilter": 9729,
      "minFilter": 9987,
      "wrapS": 10497,
      "wrapT": 10497
    }
  ],
  "scene": 0,
  "scenes": [
    {
      "name": "Sketchfab_Scene",
      "nodes": [
        0
      ]
    }
  ],
  "skins": [
    {
      "inverseBindMatrices": 30,
      "joints": [
        4
      ],
      "skeleton": 4
    }
  ],
  "textures": [
    {
      "sampler": 0,
      "source": 0
    },
    {
      "sampler": 0,
      "source": 1
    },
    {
      "sampler": 0,
      "source": 2
    }
  ]
}
