{
  "accessors": [
    {
      "bufferView": 2,
      "componentType": 5126,
      "count": 841,
      "max": [
        0.030137747526168823,
        0.08355171233415604,
        0.08352594077587128
      ],
      "min": [
        -0.20387843251228333,
        -0.0864482969045639,
        -0.033006247133016586
      ],
      "type": "VEC3"
    },
    {
      "bufferView": 2,
      "byteOffset": 10092,
      "componentType": 5126,
      "count": 841,
      "max": [
        0.9992319345474243,
        0.9999788999557495,
        0.9999791383743286
      ],
      "min": [
        -0.9992090463638306,
        -0.9999788999557495,
        -0.9999792575836182
      ],
      "type": "VEC3"
    },
    {
      "bufferView": 1,
      "componentType": 5126,
      "count": 841,
      "max": [
        1.0,
        1.0
      ],
      "min": [
        0.0,
        0.011478321626782417
      ],
      "type": "VEC2"
    },
    {
      "bufferView": 0,
      "componentType": 5125,
      "count": 2562,
      "type": "SCALAR"
    },
    {
      "bufferView": 2,
      "byteOffset": 20184,
      "componentType": 5126,
      "count": 507,
      "max": [
        0.034729816019535065,
        0.008956355974078178,
        0.30116167664527893
      ],
      "min": [
        -0.009270181879401207,
        -0.02504364401102066,
        -0.3888383209705353
      ],
      "type": "VEC3"
    },
    {
      "bufferView": 2,
      "byteOffset": 26268,
      "componentType": 5126,
      "count": 507,
      "max": [
        0.9332231283187866,
        1.0,
        0.952984631061554
      ],
      "min": [
        -1.0,
        -1.0,
        -0.9454835653305054
      ],
      "type": "VEC3"
    },
    {
      "bufferView": 1,
      "byteOffset": 6728,
      "componentType": 5126,
      "count": 507,
      "max": [
        0.9892202019691467,
        0.981633722782135
      ],
      "min": [
        0.08037927746772766,
        0.009514987468719482
      ],
      "type": "VEC2"
    },
    {
      "bufferView": 0,
      "byteOffset": 10248,
      "componentType": 5125,
      "count": 1635,
      "type": "SCALAR"
    },
    {
      "bufferView": 2,
      "byteOffset": 32352,
      "componentType": 5126,
      "count": 28,
      "max": [
        0.03328513726592064,
        0.003106154501438141,
        0.2254609614610672
      ],
      "min": [
        0.025350702926516533,
        -0.023193441331386566,
        -0.31313762068748474
      ],
      "type": "VEC3"
    },
    {
      "bufferView": 2,
      "byteOffset": 32688,
      "componentType": 5126,
      "count": 28,
      "max": [
        1.0,
        0.8819184303283691,
        0.0
      ],
      "min": [
        0.47140228748321533,
        -0.8819184303283691,
        0.0
      ],
      "type": "VEC3"
    },
    {
      "bufferView": 1,
      "byteOffset": 10784,
      "componentType": 5126,
      "count": 28,
      "max": [
        1.0,
        1.0
      ],
      "min": [
        0.0,
        0.0
      ],
      "type": "VEC2"
    },
    {
      "bufferView": 0,
      "byteOffset": 16788,
      "componentType": 5125,
      "count": 72,
      "type": "SCALAR"
    },
    {
      "bufferView": 2,
      "byteOffset": 33024,
      "componentType": 5126,
      "count": 82,
      "max": [
        0.008999999612569809,
        0.008999999612569809,
        0.003306495025753975
      ],
      "min": [
        -0.008999999612569809,
        -0.008999999612569809,
        -0.0009999999310821295
      ],
      "type": "VEC3"
    },
    {
      "bufferView": 2,
      "byteOffset": 34008,
      "componentType": 5126,
      "count": 82,
      "max": [
        1.0,
        1.0,
        1.0
      ],
      "min": [
        -1.0,
        -1.0,
        -0.6271038055419922
      ],
      "type": "VEC3"
    },
    {
      "bufferView": 1,
      "byteOffset": 11008,
      "componentType": 5126,
      "count": 82,
      "max": [
        1.0,
        1.0
      ],
      "min": [
        0.0,
        0.019269349053502083
      ],
      "type": "VEC2"
    },
    {
      "bufferView": 0,
      "byteOffset": 17076,
      "componentType": 5125,
      "count": 228,
      "type": "SCALAR"
    }
  ],
  "asset": {
    "extras": {
      "author": "hysokana (https://sketchfab.com/hysokana)",
      "license": "CC-BY-4.0 (http://creativecommons.org/licenses/by/4.0/)",
      "source": "https://sketchfab.com/3d-models/wall-lamp-e053f18243224866b3768f0257510b56",
      "title": "Wall lamp"
    },
    "generator": "Sketchfab-13.46.0",
    "version": "2.0"
  },
  "bufferViews": [
    {
      "buffer": 0,
      "byteLength": 17988,
      "name": "floatBufferViews",
      "target": 34963
    },
    {
      "buffer": 0,
      "byteLength": 11664,
      "byteOffset": 17988,
      "byteStride": 8,
      "name": "floatBufferViews",
      "target": 34962
    },
    {
      "buffer": 0,
      "byteLength": 34992,
      "byteOffset": 29652,
      "byteStride": 12,
      "name": "floatBufferViews",
      "target": 34962
    }
  ],
  "buffers": [
    {
      "byteLength": 64644,
      "uri": "scene.bin"
    }
  ],
  "materials": [
    {
      "doubleSided": true,
      "name": "Metal",
      "pbrMetallicRoughness": {
        "baseColorFactor": [
          0.3154568193938017,
          0.3154568193938017,
          0.3154568193938017,
          1.0
        ],
        "roughnessFactor": 0.26337425994647834
      }
    },
    {
      "doubleSided": true,
      "emissiveFactor": [
        1.0,
        1.0,
        1.0
      ],
      "name": "Emissive",
      "pbrMetallicRoughness": {
        "baseColorFactor": [
          0.8,
          0.8,
          0.8,
          1.0
        ],
        "metallicFactor": 0.0,
        "roughnessFactor": 0.8040408206
      }
    },
    {
      "doubleSided": true,
      "name": "Plastic",
      "pbrMetallicRoughness": {
        "baseColorFactor": [
          0.0177319702793015,
          0.0177319702793015,
          0.0177319702793015,
          1.0
        ],
        "metallicFactor": 0.22160535906405446,
        "roughnessFactor": 0.5397266595018022
      }
    }
  ],
  "meshes": [
    {
      "name": "Support_Metal_0",
      "primitives": [
        {
          "attributes": {
            "NORMAL": 1,
            "POSITION": 0,
            "TEXCOORD_0": 2
          },
          "indices": 3,
          "material": 0,
          "mode": 4
        }
      ]
    },
    {
      "name": "BigPart_Metal_0",
      "primitives": [
        {
          "attributes": {
            "NORMAL": 5,
            "POSITION": 4,
            "TEXCOORD_0": 6
          },
          "indices": 7,
          "material": 0,
          "mode": 4
        }
      ]
    },
    {
      "name": "Emissive_Emissive_0",
      "primitives": [
        {
          "attributes": {
            "NORMAL": 9,
            "POSITION": 8,
            "TEXCOORD_0": 10
          },
          "indices": 11,
          "material": 1,
          "mode": 4
        }
      ]
    },
    {
      "name": "Switch_Plastic_0",
      "primitives": [
        {
          "attributes": {
            "NORMAL": 13,
            "POSITION": 12,
            "TEXCOORD_0": 14
          },
          "indices": 15,
          "material": 2,
          "mode": 4
        }
      ]
    }
  ],
  "nodes": [
    {
      "children": [
        1
      ],
      "matrix": [
        5.351046562194824,
        0.0,
        0.0,
        0.0,
        0.0,
        1.1881710198379967e-15,
        -5.351046562194824,
        0.0,
        0.0,
        5.351046562194824,
        1.1881710198379967e-15,
        0.0,
        0.0,
        0.0,
        0.0,
        1.0
      ],
      "name": "Sketchfab_model"
    },
    {
      "children": [
        2
      ],
      "matrix": [
        1.0,
        0.0,
        0.0,
        0.0,
        0.0,
        0.0,
        1.0,
        0.0,
        0.0,
        -1.0,
        0.0,
        0.0,
        0.0,
        0.0,
        0.0,
        1.0
      ],
      "name": "b91d361e898f4518b5ef9ce15c686215.fbx"
    },
    {
      "children": [
        3
      ],
      "name": "RootNode"
    },
    {
      "children": [
        4,
        5,
        9
      ],
      "matrix": [
        1.9470718848335622e-05,
        0.0,
        -99.99999999999811,
        0.0,
        -99.99999999999679,
        -1.6292067961387602e-05,
        -1.9470718859437852e-05,
        0.0,
        -1.6292067955836487e-05,
        99.99999999999869,
        -3.197442310920451e-12,
        0.0,
        -0.14482922852039337,
        4.357387542724609,
        -20.483806610107422,
        1.0
      ],
      "name": "Support"
    },
    {
      "mesh": 0,
      "name": "Support_Metal_0"
    },
    {
      "children": [
        6,
        7
      ],
      "matrix": [
        7.549789959870878e-08,
        0.0,
        -0.999999999999997,
        0.0,
        0.9999999999999838,
        -1.6292067961387602e-07,
        7.549789954319763e-08,
        0.0,
        -1.6292067972489832e-07,
        -0.9999999999999867,
        -1.2212453270876722e-14,
        0.0,
        -0.1947944313287735,
        -0.045286595821380615,
        -0.02384405955672264,
        1.0
      ],
      "name": "BigPart"
    },
    {
      "mesh": 1,
      "name": "BigPart_Metal_0"
    },
    {
      "children": [
        8
      ],
      "matrix": [
        1.0,
        -1.323488980084844e-23,
        1.0410726739390146e-23,
        0.0,
        1.323488980084844e-23,
        1.0,
        -1.0587911840678754e-22,
        0.0,
        -1.0410726739390146e-23,
        1.0587911840678754e-22,
        1.0,
        0.0,
        -4.1558978480793485e-10,
        1.734723475976807e-18,
        -6.938893903907228e-18,
        1.0
      ],
      "name": "Emissive"
    },
    {
      "mesh": 2,
      "name": "Emissive_Emissive_0"
    },
    {
      "children": [
        10
      ],
      "matrix": [
        -1.6292067939183141e-07,
        -0.9999999999999868,
        -1.5543891214621426e-23,
        0.0,
        0.9999999999999868,
        -1.6292067939183141e-07,
        1.4693679385278594e-39,
        0.0,
        -2.5324213190870896e-30,
        -1.554389121462122e-23,
        1.0,
        0.0,
        0.01516193151473999,
        -0.06144829839468002,
        0.040440987795591354,
        1.0
      ],
      "name": "Switch"
    },
    {
      "mesh": 3,
      "name": "Switch_Plastic_0"
    }
  ],
  "scene": 0,
  "scenes": [
    {
      "name": "Sketchfab_Scene",
      "nodes": [
        0
      ]
    }
  ]
}
