{
  "accessors": [
    {
      "bufferView": 2,
      "componentType": 5126,
      "count": 65532,
      "max": [
        9.946983337402344,
        7.258887767791748,
        -2.28171706199646
      ],
      "min": [
        -7.467773914337158,
        3.26045298576355,
        -3.4592909812927246
      ],
      "type": "VEC3"
    },
    {
      "bufferView": 2,
      "byteOffset": 786384,
      "componentType": 5126,
      "count": 65532,
      "max": [
        0.999945342540741,
        0.9992230534553528,
        0.9999926686286926
      ],
      "min": [
        -0.9999721646308899,
        -0.9999890923500061,
        -0.999918520450592
      ],
      "type": "VEC3"
    },
    {
      "bufferView": 1,
      "componentType": 5126,
      "count": 65532,
      "max": [
        0.9987940192222595,
        0.9997169971466064
      ],
      "min": [
        0.0004220000118948519,
        0.021689999848604202
      ],
      "type": "VEC2"
    },
    {
      "bufferView": 0,
      "componentType": 5125,
      "count": 247314,
      "type": "SCALAR"
    },
    {
      "bufferView": 2,
      "byteOffset": 1572768,
      "componentType": 5126,
      "count": 65532,
      "max": [
        9.856863975524902,
        6.849110126495361,
        -2.787398099899292
      ],
      "min": [
        -7.453595161437988,
        1.7020950317382813,
        -5.19436502456665
      ],
      "type": "VEC3"
    },
    {
      "bufferView": 2,
      "byteOffset": 2359152,
      "componentType": 5126,
      "count": 65532,
      "max": [
        0.9999736547470093,
        0.9993408918380737,
        0.9999988079071045
      ],
      "min": [
        -0.9999098777770996,
        -0.9999954700469971,
        -0.999918520450592
      ],
      "type": "VEC3"
    },
    {
      "bufferView": 1,
      "byteOffset": 524256,
      "componentType": 5126,
      "count": 65532,
      "max": [
        0.9960950016975403,
        0.9993289709091187
      ],
      "min": [
        0.0003600000054575503,
        0.003370000049471855
      ],
      "type": "VEC2"
    },
    {
      "bufferView": 0,
      "byteOffset": 989256,
      "componentType": 5125,
      "count": 258135,
      "type": "SCALAR"
    },
    {
      "bufferView": 2,
      "byteOffset": 3145536,
      "componentType": 5126,
      "count": 65532,
      "max": [
        9.838662147521973,
        6.637073040008545,
        -4.2633562088012695
      ],
      "min": [
        -7.851533889770508,
        1.202543020248413,
        -5.269421100616455
      ],
      "type": "VEC3"
    },
    {
      "bufferView": 2,
      "byteOffset": 3931920,
      "componentType": 5126,
      "count": 65532,
      "max": [
        0.9998705387115479,
        0.9999961853027344,
        0.9999967217445374
      ],
      "min": [
        -0.9999879598617554,
        -0.9999482035636902,
        -0.9998219013214111
      ],
      "type": "VEC3"
    },
    {
      "bufferView": 1,
      "byteOffset": 1048512,
      "componentType": 5126,
      "count": 65532,
      "max": [
        0.9984989762306213,
        0.9999759793281555
      ],
      "min": [
        0.00033000000985339284,
        0.0034799999557435513
      ],
      "type": "VEC2"
    },
    {
      "bufferView": 0,
      "byteOffset": 2021796,
      "componentType": 5125,
      "count": 266856,
      "type": "SCALAR"
    },
    {
      "bufferView": 2,
      "byteOffset": 4718304,
      "componentType": 5126,
      "count": 65533,
      "max": [
        9.851984977722168,
        6.810060977935791,
        -2.3226070404052734
      ],
      "min": [
        -7.744133949279785,
        1.177495002746582,
        -5.260406970977783
      ],
      "type": "VEC3"
    },
    {
      "bufferView": 2,
      "byteOffset": 5504700,
      "componentType": 5126,
      "count": 65533,
      "max": [
        0.9999967217445374,
        0.999722421169281,
        0.9999922513961792
      ],
      "min": [
        -0.999993085861206,
        -0.9999486207962036,
        -0.9999116659164429
      ],
      "type": "VEC3"
    },
    {
      "bufferView": 1,
      "byteOffset": 1572768,
      "componentType": 5126,
      "count": 65533,
      "max": [
        0.9970409870147705,
        1.0005170106887817
      ],
      "min": [
        -0.0010110000148415565,
        0.0037090000696480274
      ],
      "type": "VEC2"
    },
    {
      "bufferView": 0,
      "byteOffset": 3089220,
      "componentType": 5125,
      "count": 225273,
      "type": "SCALAR"
    },
    {
      "bufferView": 2,
      "byteOffset": 6291096,
      "componentType": 5126,
      "count": 46261,
      "max": [
        9.870650291442871,
        6.906536102294922,
        -3.353537082672119
      ],
      "min": [
        -7.48824405670166,
        3.020308017730713,
        -4.413924217224121
      ],
      "type": "VEC3"
    },
    {
      "bufferView": 2,
      "byteOffset": 6846228,
      "componentType": 5126,
      "count": 46261,
      "max": [
        0.9997764229774475,
        0.9988479614257813,
        0.9999943971633911
      ],
      "min": [
        -0.999993085861206,
        -0.9999662041664124,
        -0.9999328255653381
      ],
      "type": "VEC3"
    },
    {
      "bufferView": 1,
      "byteOffset": 2097032,
      "componentType": 5126,
      "count": 46261,
      "max": [
        0.9970939755439758,
        0.9996749758720398
      ],
      "min": [
        0.00025400001322850585,
        0.0037579999770969152
      ],
      "type": "VEC2"
    },
    {
      "bufferView": 0,
      "byteOffset": 3990312,
      "componentType": 5125,
      "count": 171237,
      "type": "SCALAR"
    }
  ],
  "asset": {
    "extras": {
      "author": "Nikitos & 3130 (https://sketchfab.com/vrcityphoto)",
      "license": "CC-BY-4.0 (http://creativecommons.org/licenses/by/4.0/)",
      "source": "https://sketchfab.com/3d-models/gardening-park-landscape13-f08ab73038eb4e81b063b6b49b842e41",
      "title": "Gardening. Park. Landscape.13"
    },
    "generator": "Sketchfab-12.68.0",
    "version": "2.0"
  },
  "bufferViews": [
    {
      "buffer": 0,
      "byteLength": 4675260,
      "name": "floatBufferViews",
      "target": 34963
    },
    {
      "buffer": 0,
      "byteLength": 2467120,
      "byteOffset": 4675260,
      "byteStride": 8,
      "name": "floatBufferViews",
      "target": 34962
    },
    {
      "buffer": 0,
      "byteLength": 7401360,
      "byteOffset": 7142380,
      "byteStride": 12,
      "name": "floatBufferViews",
      "target": 34962
    }
  ],
  "buffers": [
    {
      "byteLength": 14543740,
      "uri": "scene.bin"
    }
  ],
  "extensionsUsed": [
    "KHR_materials_unlit"
  ],
  "images": [
    {
      "uri": "textures/model_baseColor.jpeg"
    }
  ],
  "materials": [
    {
      "doubleSided": true,
      "extensions": {
        "KHR_materials_unlit": {}
      },
      "name": "model",
      "pbrMetallicRoughness": {
        "baseColorTexture": {
          "index": 0
        },
        "metallicFactor": 0.0
      }
    }
  ],
  "meshes": [
    {
      "name": "Object_0",
      "primitives": [
        {
          "attributes": {
            "NORMAL": 1,
            "POSITION": 0,
            "TEXCOORD_0": 2
          },
          "indices": 3,
          "material": 0,
          "mode": 4
        }
      ]
    },
    {
      "name": "Object_1",
      "primitives": [
        {
          "attributes": {
            "NORMAL": 5,
            "POSITION": 4,
            "TEXCOORD_0": 6
          },
          "indices": 7,
          "material": 0,
          "mode": 4
        }
      ]
    },
    {
      "name": "Object_2",
      "primitives": [
        {
          "attributes": {
            "NORMAL": 9,
            "POSITION": 8,
            "TEXCOORD_0": 10
          },
          "indices": 11,
          "material": 0,
          "mode": 4
        }
      ]
    },
    {
      "name": "Object_3",
      "primitives": [
        {
          "attributes": {
            "NORMAL": 13,
            "POSITION": 12,
            "TEXCOORD_0": 14
          },
          "indices": 15,
          "material": 0,
          "mode": 4
        }
      ]
    },
    {
      "name": "Object_4",
      "primitives": [
        {
          "attributes": {
            "NORMAL": 17,
            "POSITION": 16,
            "TEXCOORD_0": 18
          },
          "indices": 19,
          "material": 0,
          "mode": 4
        }
      ]
    }
  ],
  "nodes": [
    {
      "children": [
        1
      ],
      "matrix": [
        1.0,
        0.0,
        0.0,
        0.0,
        0.0,
        2.220446049250313e-16,
        -1.0,
        0.0,
        0.0,
        1.0,
        2.220446049250313e-16,
        0.0,
        0.0,
        0.0,
        0.0,
        1.0
      ],
      "name": "Sketchfab_model"
    },
    {
      "children": [
        2,
        3,
        4,
        5,
        6
      ],
      "name": "model.obj.cleaner.materialmerger.gles"
    },
    {
      "mesh": 0,
      "name": "Object_2"
    },
    {
      "mesh": 1,
      "name": "Object_3"
    },
    {
      "mesh": 2,
      "name": "Object_4"
    },
    {
      "mesh": 3,
      "name": "Object_5"
    },
    {
      "mesh": 4,
      "name": "Object_6"
    }
  ],
  "samplers": [
    {
      "magFilter": 9729,
      "minFilter": 9987,
      "wrapS": 10497,
      "wrapT": 10497
    }
  ],
  "scene": 0,
  "scenes": [
    {
      "name": "Sketchfab_Scene",
      "nodes": [
        0
      ]
    }
  ],
  "textures": [
    {
      "sampler": 0,
      "source": 0
    }
  ]
}
