{
  "accessors": [
    {
      "bufferView": 2,
      "componentType": 5126,
      "count": 7605,
      "max": [
        25.26058578491211,
        149.60733032226563,
        64.32130432128906
      ],
      "min": [
        -25.257457733154297,
        0.04609646648168564,
        -64.37958526611328
      ],
      "type": "VEC3"
    },
    {
      "bufferView": 2,
      "byteOffset": 91260,
      "componentType": 5126,
      "count": 7605,
      "max": [
        0.9999315142631531,
        0.999964714050293,
        0.9994357824325562
      ],
      "min": [
        -0.9999615550041199,
        -0.9999923706054688,
        -0.999924898147583
      ],
      "type": "VEC3"
    },
    {
      "bufferView": 3,
      "componentType": 5126,
      "count": 7605,
      "max": [
        0.9998982548713684,
        0.9998232126235962,
        0.9999995231628418,
        1.0
      ],
      "min": [
        -0.9999598860740662,
        -0.9994580745697021,
        -0.9989889860153198,
        -1.0
      ],
      "type": "VEC4"
    },
    {
      "bufferView": 1,
      "componentType": 5126,
      "count": 7605,
      "max": [
        0.995185136795044,
        0.9956788420677185
      ],
      "min": [
        0.004873037338256836,
        0.01644238829612732
      ],
      "type": "VEC2"
    },
    {
      "bufferView": 0,
      "componentType": 5125,
      "count": 39696,
      "type": "SCALAR"
    }
  ],
  "asset": {
    "extras": {
      "author": "zcxsad1 (https://sketchfab.com/zcxsad1)",
      "license": "CC-BY-4.0 (http://creativecommons.org/licenses/by/4.0/)",
      "source": "https://sketchfab.com/3d-models/deer-full-body-2205809f7e61444db62640b2d02c89f3",
      "title": "deer_full body"
    },
    "generator": "Sketchfab-13.74.0",
    "version": "2.0"
  },
  "bufferViews": [
    {
      "buffer": 0,
      "byteLength": 158784,
      "name": "floatBufferViews",
      "target": 34963
    },
    {
      "buffer": 0,
      "byteLength": 60840,
      "byteOffset": 158784,
      "byteStride": 8,
      "name": "floatBufferViews",
      "target": 34962
    },
    {
      "buffer": 0,
      "byteLength": 182520,
      "byteOffset": 219624,
      "byteStride": 12,
      "name": "floatBufferViews",
      "target": 34962
    },
    {
      "buffer": 0,
      "byteLength": 121680,
      "byteOffset": 402144,
      "byteStride": 16,
      "name": "floatBufferViews",
      "target": 34962
    }
  ],
  "buffers": [
    {
      "byteLength": 523824,
      "uri": "scene.bin"
    }
  ],
  "images": [
    {
      "uri": "textures/retopology_deer_baseColor.jpeg"
    },
    {
      "uri": "textures/retopology_deer_metallicRoughness.png"
    },
    {
      "uri": "textures/retopology_deer_normal.jpeg"
    }
  ],
  "materials": [
    {
      "doubleSided": true,
      "name": "retopology_deer",
      "normalTexture": {
        "index": 2
      },
      "pbrMetallicRoughness": {
        "baseColorTexture": {
          "index": 0
        },
        "metallicFactor": 0.0,
        "metallicRoughnessTexture": {
          "index": 1
        }
      }
    }
  ],
  "meshes": [
    {
      "name": "retopology_deer_retopology_deer_0",
      "primitives": [
        {
          "attributes": {
            "NORMAL": 1,
            "POSITION": 0,
            "TANGENT": 2,
            "TEXCOORD_0": 3
          },
          "indices": 4,
          "material": 0,
          "mode": 4
        }
      ]
    }
  ],
  "nodes": [
    {
      "children": [
        1
      ],
      "matrix": [
        1.0,
        0.0,
        0.0,
        0.0,
        0.0,
        3.828568672208042e-16,
        -1.0,
        0.0,
        0.0,
        1.0,
        3.828568672208042e-16,
        0.0,
        0.0,
        0.0,
        0.0,
        1.0
      ],
      "name": "Sketchfab_model"
    },
    {
      "children": [
        2
      ],
      "matrix": [
        0.009999999776482582,
        0.0,
        0.0,
        0.0,
        0.0,
        0.0,
        0.009999999776482582,
        0.0,
        0.0,
        -0.009999999776482582,
        0.0,
        0.0,
        0.0,
        0.0,
        0.0,
        1.0
      ],
      "name": "e28393ea0f0341438d4dc460be2bfd31.fbx"
    },
    {
      "children": [
        3
      ],
      "name": "RootNode"
    },
    {
      "children": [
        4
      ],
      "name": "retopology_deer"
    },
    {
      "mesh": 0,
      "name": "retopology_deer_retopology_deer_0"
    }
  ],
  "samplers": [
    {
      "magFilter": 9729,
      "minFilter": 9987,
      "wrapS": 10497,
      "wrapT": 10497
    }
  ],
  "scene": 0,
  "scenes": [
    {
      "name": "Sketchfab_Scene",
      "nodes": [
        0
      ]
    }
  ],
  "textures": [
    {
      "sampler": 0,
      "source": 0
    },
    {
      "sampler": 0,
      "source": 1
    },
    {
      "sampler": 0,
      "source": 2
    }
  ]
}
