{
  "accessors": [
    {
      "bufferView": 2,
      "componentType": 5126,
      "count": 4008,
      "max": [
        1.0205340385437012,
        2.6109321117401123,
        1.1944935321807861
      ],
      "min": [
        -1.0205340385437012,
        -2.9976754188537598,
        0.07154911011457443
      ],
      "type": "VEC3"
    },
    {
      "bufferView": 2,
      "byteOffset": 48096,
      "componentType": 5126,
      "count": 4008,
      "max": [
        1.0,
        0.9996888637542725,
        1.0
      ],
      "min": [
        -1.0,
        -0.9998986124992371,
        -1.0
      ],
      "type": "VEC3"
    },
    {
      "bufferView": 1,
      "componentType": 5126,
      "count": 4008,
      "max": [
        0.7500000596046448,
        0.875
      ],
      "min": [
        0.25,
        0.3749999701976776
      ],
      "type": "VEC2"
    },
    {
      "bufferView": 0,
      "componentType": 5125,
      "count": 18297,
      "type": "SCALAR"
    },
    {
      "bufferView": 2,
      "byteOffset": 96192,
      "componentType": 5126,
      "count": 1236,
      "max": [
        0.9941663146018982,
        2.602999687194824,
        1.1864601373672485
      ],
      "min": [
        -0.9941662549972534,
        -2.987462043762207,
        0.10575486719608307
      ],
      "type": "VEC3"
    },
    {
      "bufferView": 2,
      "byteOffset": 111024,
      "componentType": 5126,
      "count": 1236,
      "max": [
        0.9999991059303284,
        0.9988721609115601,
        0.9999978542327881
      ],
      "min": [
        -0.9999991059303284,
        -0.9939050078392029,
        -0.9999994039535522
      ],
      "type": "VEC3"
    },
    {
      "bufferView": 1,
      "byteOffset": 32064,
      "componentType": 5126,
      "count": 1236,
      "max": [
        0.7500000596046448,
        0.875
      ],
      "min": [
        0.25,
        0.3749999701976776
      ],
      "type": "VEC2"
    },
    {
      "bufferView": 0,
      "byteOffset": 73188,
      "componentType": 5125,
      "count": 1824,
      "type": "SCALAR"
    },
    {
      "bufferView": 2,
      "byteOffset": 125856,
      "componentType": 5126,
      "count": 341,
      "max": [
        0.9003829956054688,
        1.0184932947158813,
        1.1944935321807861
      ],
      "min": [
        -0.9003829956054688,
        -2.05963397026062,
        0.5746413469314575
      ],
      "type": "VEC3"
    },
    {
      "bufferView": 2,
      "byteOffset": 129948,
      "componentType": 5126,
      "count": 341,
      "max": [
        0.9514612555503845,
        0.7978277206420898,
        1.0
      ],
      "min": [
        -0.9514645338058472,
        -0.9136518239974976,
        -0.9999902248382568
      ],
      "type": "VEC3"
    },
    {
      "bufferView": 1,
      "byteOffset": 41952,
      "componentType": 5126,
      "count": 341,
      "max": [
        0.75,
        0.7151384949684143
      ],
      "min": [
        0.6249998807907104,
        0.5689995884895325
      ],
      "type": "VEC2"
    },
    {
      "bufferView": 0,
      "byteOffset": 80484,
      "componentType": 5125,
      "count": 1800,
      "type": "SCALAR"
    },
    {
      "bufferView": 2,
      "byteOffset": 134040,
      "componentType": 5126,
      "count": 64,
      "max": [
        0.7996186017990112,
        1.4882127046585083,
        1.1464186906814575
      ],
      "min": [
        -0.7996186017990112,
        1.1529165506362915,
        0.906440794467926
      ],
      "type": "VEC3"
    },
    {
      "bufferView": 2,
      "byteOffset": 134808,
      "componentType": 5126,
      "count": 64,
      "max": [
        0.9098466634750366,
        0.9857632517814636,
        0.9971641898155212
      ],
      "min": [
        -0.949759840965271,
        -0.7917900085449219,
        -0.9859468936920166
      ],
      "type": "VEC3"
    },
    {
      "bufferView": 1,
      "byteOffset": 44680,
      "componentType": 5126,
      "count": 64,
      "max": [
        0.7338611483573914,
        0.5489932298660278
      ],
      "min": [
        0.6310001611709595,
        0.4663730561733246
      ],
      "type": "VEC2"
    },
    {
      "bufferView": 0,
      "byteOffset": 87684,
      "componentType": 5125,
      "count": 270,
      "type": "SCALAR"
    },
    {
      "bufferView": 2,
      "byteOffset": 135576,
      "componentType": 5126,
      "count": 109,
      "max": [
        0.803368866443634,
        1.692902684211731,
        0.9337369799613953
      ],
      "min": [
        -0.803368866443634,
        1.501996397972107,
        0.8914470672607422
      ],
      "type": "VEC3"
    },
    {
      "bufferView": 2,
      "byteOffset": 136884,
      "componentType": 5126,
      "count": 109,
      "max": [
        0.6508941054344177,
        0.8064166903495789,
        0.9992671012878418
      ],
      "min": [
        -0.6515430212020874,
        -0.816765546798706,
        -0.9992645382881165
      ],
      "type": "VEC3"
    },
    {
      "bufferView": 1,
      "byteOffset": 45192,
      "componentType": 5126,
      "count": 109,
      "max": [
        0.6867683529853821,
        0.5271527767181396
      ],
      "min": [
        0.6306118369102478,
        0.43435636162757874
      ],
      "type": "VEC2"
    },
    {
      "bufferView": 0,
      "byteOffset": 88764,
      "componentType": 5125,
      "count": 480,
      "type": "SCALAR"
    },
    {
      "bufferView": 2,
      "byteOffset": 138192,
      "componentType": 5126,
      "count": 95,
      "max": [
        0.958905816078186,
        2.1435463428497314,
        0.697407603263855
      ],
      "min": [
        -0.958905816078186,
        2.108372926712036,
        0.5101302266120911
      ],
      "type": "VEC3"
    },
    {
      "bufferView": 2,
      "byteOffset": 139332,
      "componentType": 5126,
      "count": 95,
      "max": [
        0.709737241268158,
        0.9951748847961426,
        0.8534941077232361
      ],
      "min": [
        -0.7098923921585083,
        -0.9951181411743164,
        -0.775899350643158
      ],
      "type": "VEC3"
    },
    {
      "bufferView": 1,
      "byteOffset": 46064,
      "componentType": 5126,
      "count": 95,
      "max": [
        0.6250000596046448,
        0.4950551390647888
      ],
      "min": [
        0.5864912271499634,
        0.3749999701976776
      ],
      "type": "VEC2"
    },
    {
      "bufferView": 0,
      "byteOffset": 90684,
      "componentType": 5125,
      "count": 468,
      "type": "SCALAR"
    },
    {
      "bufferView": 2,
      "byteOffset": 140472,
      "componentType": 5126,
      "count": 368,
      "max": [
        0.9905387163162231,
        2.584031820297241,
        0.8574101328849792
      ],
      "min": [
        -0.9905387759208679,
        2.480579137802124,
        0.14434652030467987
      ],
      "type": "VEC3"
    },
    {
      "bufferView": 2,
      "byteOffset": 144888,
      "componentType": 5126,
      "count": 368,
      "max": [
        0.9864284992218018,
        0.999168872833252,
        0.999925434589386
      ],
      "min": [
        -0.9864246249198914,
        -0.9999374151229858,
        -0.9999172687530518
      ],
      "type": "VEC3"
    },
    {
      "bufferView": 1,
      "byteOffset": 46824,
      "componentType": 5126,
      "count": 368,
      "max": [
        0.6250001192092896,
        0.49394071102142334
      ],
      "min": [
        0.6249998807907104,
        0.375
      ],
      "type": "VEC2"
    },
    {
      "bufferView": 0,
      "byteOffset": 92556,
      "componentType": 5125,
      "count": 1908,
      "type": "SCALAR"
    },
    {
      "bufferView": 2,
      "byteOffset": 149304,
      "componentType": 5126,
      "count": 130,
      "max": [
        0.9123551249504089,
        -2.326575994491577,
        0.5452135801315308
      ],
      "min": [
        -0.9123550653457642,
        -2.8391823768615723,
        0.28712987899780273
      ],
      "type": "VEC3"
    },
    {
      "bufferView": 2,
      "byteOffset": 150864,
      "componentType": 5126,
      "count": 130,
      "max": [
        0.9981449842453003,
        0.997611403465271,
        0.7527152299880981
      ],
      "min": [
        -0.9930284023284912,
        -0.992213249206543,
        -0.7375040054321289
      ],
      "type": "VEC3"
    },
    {
      "bufferView": 1,
      "byteOffset": 49768,
      "componentType": 5126,
      "count": 130,
      "max": [
        0.6031648516654968,
        0.7958775758743286
      ],
      "min": [
        0.592414915561676,
        0.7307607531547546
      ],
      "type": "VEC2"
    },
    {
      "bufferView": 0,
      "byteOffset": 100188,
      "componentType": 5125,
      "count": 684,
      "type": "SCALAR"
    },
    {
      "bufferView": 2,
      "byteOffset": 152424,
      "componentType": 5126,
      "count": 1516,
      "max": [
        1.0172451734542847,
        1.8184185028076172,
        0.5130410194396973
      ],
      "min": [
        -1.0172451734542847,
        1.3723698854446411,
        0.257289856672287
      ],
      "type": "VEC3"
    },
    {
      "bufferView": 2,
      "byteOffset": 170616,
      "componentType": 5126,
      "count": 1516,
      "max": [
        1.0,
        0.80125492811203,
        0.9563578367233276
      ],
      "min": [
        -1.0,
        -0.8300923109054565,
        -0.9561329483985901
      ],
      "type": "VEC3"
    },
    {
      "bufferView": 1,
      "byteOffset": 50808,
      "componentType": 5126,
      "count": 1516,
      "max": [
        0.6056089401245117,
        0.5543480515480042
      ],
      "min": [
        0.0,
        0.0
      ],
      "type": "VEC2"
    },
    {
      "bufferView": 0,
      "byteOffset": 102924,
      "componentType": 5125,
      "count": 3600,
      "type": "SCALAR"
    },
    {
      "bufferView": 2,
      "byteOffset": 188808,
      "componentType": 5126,
      "count": 390,
      "max": [
        0.8599357008934021,
        -2.141231060028076,
        0.4147173762321472
      ],
      "min": [
        0.34763064980506897,
        -2.5143284797668457,
        0.371753066778183
      ],
      "type": "VEC3"
    },
    {
      "bufferView": 2,
      "byteOffset": 193488,
      "componentType": 5126,
      "count": 390,
      "max": [
        0.9955735206604004,
        0.9861188530921936,
        0.99917072057724
      ],
      "min": [
        -0.9955717325210571,
        -0.9861233234405518,
        -0.9996935129165649
      ],
      "type": "VEC3"
    },
    {
      "bufferView": 1,
      "byteOffset": 62936,
      "componentType": 5126,
      "count": 390,
      "max": [
        0.6899324655532837,
        0.7483878135681152
      ],
      "min": [
        0.6249999403953552,
        0.6951690912246704
      ],
      "type": "VEC2"
    },
    {
      "bufferView": 0,
      "byteOffset": 117324,
      "componentType": 5125,
      "count": 1596,
      "type": "SCALAR"
    },
    {
      "bufferView": 2,
      "byteOffset": 198168,
      "componentType": 5126,
      "count": 1621,
      "max": [
        1.0,
        -2.328645706176758,
        0.31336936354637146
      ],
      "min": [
        -1.0,
        -2.9974915981292725,
        0.10000002384185791
      ],
      "type": "VEC3"
    },
    {
      "bufferView": 2,
      "byteOffset": 217620,
      "componentType": 5126,
      "count": 1621,
      "max": [
        0.9996770620346069,
        0.9975033402442932,
        0.9999926090240479
      ],
      "min": [
        -0.9996811151504517,
        -0.9992080330848694,
        -1.0
      ],
      "type": "VEC3"
    },
    {
      "bufferView": 1,
      "byteOffset": 66056,
      "componentType": 5126,
      "count": 1621,
      "max": [
        0.5923529267311096,
        0.8404466509819031
      ],
      "min": [
        0.0,
        0.0
      ],
      "type": "VEC2"
    },
    {
      "bufferView": 0,
      "byteOffset": 123708,
      "componentType": 5125,
      "count": 3969,
      "type": "SCALAR"
    }
  ],
  "asset": {
    "extras": {
      "author": "Unity Fan youtube channel (https://sketchfab.com/unityfan777)",
      "license": "CC-BY-4.0 (http://creativecommons.org/licenses/by/4.0/)",
      "source": "https://sketchfab.com/3d-models/sci-fi-vehicle-026-public-domain-b41e0eb90a4d4dfa8c8906c70ee77490",
      "title": "Sci-fi Vehicle 026 - public domain"
    },
    "generator": "Sketchfab-13.88.0",
    "version": "2.0"
  },
  "bufferViews": [
    {
      "buffer": 0,
      "byteLength": 139584,
      "name": "floatBufferViews",
      "target": 34963
    },
    {
      "buffer": 0,
      "byteLength": 79024,
      "byteOffset": 139584,
      "byteStride": 8,
      "name": "floatBufferViews",
      "target": 34962
    },
    {
      "buffer": 0,
      "byteLength": 237072,
      "byteOffset": 218608,
      "byteStride": 12,
      "name": "floatBufferViews",
      "target": 34962
    }
  ],
  "buffers": [
    {
      "byteLength": 455680,
      "uri": "scene.bin"
    }
  ],
  "materials": [
    {
      "doubleSided": true,
      "name": "silver",
      "pbrMetallicRoughness": {
        "baseColorFactor": [
          0.325266,
          0.357961,
          0.467202,
          1.0
        ],
        "roughnessFactor": 0.20571491265497188
      }
    },
    {
      "doubleSided": true,
      "name": "blocker",
      "pbrMetallicRoughness": {
        "baseColorFactor": [
          0.0,
          0.0,
          0.0,
          1.0
        ],
        "metallicFactor": 0.0
      }
    },
    {
      "doubleSided": true,
      "name": "plastic_shiny",
      "pbrMetallicRoughness": {
        "baseColorFactor": [
          0.0,
          0.0,
          0.0,
          1.0
        ],
        "metallicFactor": 0.0,
        "roughnessFactor": 0.0
      }
    },
    {
      "doubleSided": true,
      "name": "plastic_matte",
      "pbrMetallicRoughness": {
        "baseColorFactor": [
          0.0,
          0.0,
          0.0,
          1.0
        ],
        "metallicFactor": 0.0,
        "roughnessFactor": 0.4007631261352415
      }
    },
    {
      "doubleSided": true,
      "emissiveFactor": [
        1.0,
        0.0,
        0.07804900000000016
      ],
      "name": "taillight",
      "pbrMetallicRoughness": {
        "baseColorFactor": [
          0.7999999999999999,
          0.0,
          0.005151109999999982,
          1.0
        ],
        "metallicFactor": 0.0,
        "roughnessFactor": 0.9460983732424926
      }
    },
    {
      "doubleSided": true,
      "emissiveFactor": [
        1.0,
        1.0,
        1.0
      ],
      "name": "headlights",
      "pbrMetallicRoughness": {
        "baseColorFactor": [
          1.0,
          0.633473,
          0.409203,
          1.0
        ],
        "metallicFactor": 0.0,
        "roughnessFactor": 0.8445475823643502
      }
    }
  ],
  "meshes": [
    {
      "name": "sci-fi_car_26_silver_0",
      "primitives": [
        {
          "attributes": {
            "NORMAL": 1,
            "POSITION": 0,
            "TEXCOORD_0": 2
          },
          "indices": 3,
          "material": 0,
          "mode": 4
        }
      ]
    },
    {
      "name": "sci-fi_car_26.001_blocker_0",
      "primitives": [
        {
          "attributes": {
            "NORMAL": 5,
            "POSITION": 4,
            "TEXCOORD_0": 6
          },
          "indices": 7,
          "material": 1,
          "mode": 4
        }
      ]
    },
    {
      "name": "sci-fi_car_26.002_plastic_shiny_0",
      "primitives": [
        {
          "attributes": {
            "NORMAL": 9,
            "POSITION": 8,
            "TEXCOORD_0": 10
          },
          "indices": 11,
          "material": 2,
          "mode": 4
        }
      ]
    },
    {
      "name": "sci-fi_car_26.003_plastic_shiny_0",
      "primitives": [
        {
          "attributes": {
            "NORMAL": 13,
            "POSITION": 12,
            "TEXCOORD_0": 14
          },
          "indices": 15,
          "material": 2,
          "mode": 4
        }
      ]
    },
    {
      "name": "sci-fi_car_26.004_plastic_matte_0",
      "primitives": [
        {
          "attributes": {
            "NORMAL": 17,
            "POSITION": 16,
            "TEXCOORD_0": 18
          },
          "indices": 19,
          "material": 3,
          "mode": 4
        }
      ]
    },
    {
      "name": "sci-fi_car_26.005_plastic_matte_0",
      "primitives": [
        {
          "attributes": {
            "NORMAL": 21,
            "POSITION": 20,
            "TEXCOORD_0": 22
          },
          "indices": 23,
          "material": 3,
          "mode": 4
        }
      ]
    },
    {
      "name": "sci-fi_car_26.006_taillight_0",
      "primitives": [
        {
          "attributes": {
            "NORMAL": 25,
            "POSITION": 24,
            "TEXCOORD_0": 26
          },
          "indices": 27,
          "material": 4,
          "mode": 4
        }
      ]
    },
    {
      "name": "sci-fi_car_26.007_headlights_0",
      "primitives": [
        {
          "attributes": {
            "NORMAL": 29,
            "POSITION": 28,
            "TEXCOORD_0": 30
          },
          "indices": 31,
          "material": 5,
          "mode": 4
        }
      ]
    },
    {
      "name": "sci-fi_car_26.008_silver_0",
      "primitives": [
        {
          "attributes": {
            "NORMAL": 33,
            "POSITION": 32,
            "TEXCOORD_0": 34
          },
          "indices": 35,
          "material": 0,
          "mode": 4
        }
      ]
    },
    {
      "name": "sci-fi_car_26.009_silver_0",
      "primitives": [
        {
          "attributes": {
            "NORMAL": 37,
            "POSITION": 36,
            "TEXCOORD_0": 38
          },
          "indices": 39,
          "material": 0,
          "mode": 4
        }
      ]
    },
    {
      "name": "sci-fi_car_26.011_silver_0",
      "primitives": [
        {
          "attributes": {
            "NORMAL": 41,
            "POSITION": 40,
            "TEXCOORD_0": 42
          },
          "indices": 43,
          "material": 0,
          "mode": 4
        }
      ]
    }
  ],
  "nodes": [
    {
      "children": [
        1
      ],
      "matrix": [
        1.0,
        0.0,
        0.0,
        0.0,
        0.0,
        2.220446049250313e-16,
        -1.0,
        0.0,
        0.0,
        1.0,
        2.220446049250313e-16,
        0.0,
        0.0,
        0.0,
        0.0,
        1.0
      ],
      "name": "Sketchfab_model"
    },
    {
      "children": [
        2
      ],
      "matrix": [
        0.009999999776482582,
        0.0,
        0.0,
        0.0,
        0.0,
        0.0,
        0.009999999776482582,
        0.0,
        0.0,
        -0.009999999776482582,
        0.0,
        0.0,
        0.0,
        0.0,
        0.0,
        1.0
      ],
      "name": "b2431128c3544c25897e209e403c9c1c.fbx"
    },
    {
      "children": [
        3,
        5,
        7,
        9,
        11,
        13,
        15,
        17,
        19,
        21,
        23
      ],
      "name": "RootNode"
    },
    {
      "children": [
        4
      ],
      "matrix": [
        100.0,
        0.0,
        0.0,
        0.0,
        0.0,
        -1.629206793918314e-05,
        -99.99999999999868,
        0.0,
        0.0,
        99.99999999999868,
        -1.629206793918314e-05,
        0.0,
        0.0,
        0.0,
        62.90087890625,
        1.0
      ],
      "name": "sci-fi_car_26"
    },
    {
      "mesh": 0,
      "name": "sci-fi_car_26_silver_0"
    },
    {
      "children": [
        6
      ],
      "matrix": [
        100.0,
        0.0,
        0.0,
        0.0,
        0.0,
        -1.629206793918314e-05,
        -99.99999999999868,
        0.0,
        0.0,
        99.99999999999868,
        -1.629206793918314e-05,
        0.0,
        0.0,
        0.0,
        62.90087890625,
        1.0
      ],
      "name": "sci-fi_car_26.001"
    },
    {
      "mesh": 1,
      "name": "sci-fi_car_26.001_blocker_0"
    },
    {
      "children": [
        8
      ],
      "matrix": [
        100.0,
        0.0,
        0.0,
        0.0,
        0.0,
        -1.629206793918314e-05,
        -99.99999999999868,
        0.0,
        0.0,
        99.99999999999868,
        -1.629206793918314e-05,
        0.0,
        0.0,
        0.0,
        62.90087890625,
        1.0
      ],
      "name": "sci-fi_car_26.002"
    },
    {
      "mesh": 2,
      "name": "sci-fi_car_26.002_plastic_shiny_0"
    },
    {
      "children": [
        10
      ],
      "matrix": [
        100.0,
        0.0,
        0.0,
        0.0,
        0.0,
        -1.9844445263247258e-05,
        -121.80433654784996,
        0.0,
        0.0,
        99.99999999999868,
        -1.629206793918314e-05,
        0.0,
        0.0,
        0.0,
        62.90087890625,
        1.0
      ],
      "name": "sci-fi_car_26.003"
    },
    {
      "mesh": 3,
      "name": "sci-fi_car_26.003_plastic_shiny_0"
    },
    {
      "children": [
        12
      ],
      "matrix": [
        100.0,
        0.0,
        0.0,
        0.0,
        0.0,
        -1.9844445263247258e-05,
        -121.80433654784996,
        0.0,
        0.0,
        99.99999999999868,
        -1.629206793918314e-05,
        0.0,
        0.0,
        0.0,
        62.90087890625,
        1.0
      ],
      "name": "sci-fi_car_26.004"
    },
    {
      "mesh": 4,
      "name": "sci-fi_car_26.004_plastic_matte_0"
    },
    {
      "children": [
        14
      ],
      "matrix": [
        100.0,
        0.0,
        0.0,
        0.0,
        0.0,
        -1.9844445263247258e-05,
        -121.80433654784996,
        0.0,
        0.0,
        99.99999999999868,
        -1.629206793918314e-05,
        0.0,
        0.0,
        0.0,
        62.90087890625,
        1.0
      ],
      "name": "sci-fi_car_26.005"
    },
    {
      "mesh": 5,
      "name": "sci-fi_car_26.005_plastic_matte_0"
    },
    {
      "children": [
        16
      ],
      "matrix": [
        100.0,
        0.0,
        0.0,
        0.0,
        0.0,
        -1.629206793918314e-05,
        -99.99999999999868,
        0.0,
        0.0,
        99.99999999999868,
        -1.629206793918314e-05,
        0.0,
        0.0,
        0.0,
        62.90087890625,
        1.0
      ],
      "name": "sci-fi_car_26.006"
    },
    {
      "mesh": 6,
      "name": "sci-fi_car_26.006_taillight_0"
    },
    {
      "children": [
        18
      ],
      "matrix": [
        100.0,
        0.0,
        0.0,
        0.0,
        0.0,
        -1.629206793918314e-05,
        -99.99999999999868,
        0.0,
        0.0,
        99.99999999999868,
        -1.629206793918314e-05,
        0.0,
        0.0,
        0.0,
        62.90087890625,
        1.0
      ],
      "name": "sci-fi_car_26.007"
    },
    {
      "mesh": 7,
      "name": "sci-fi_car_26.007_headlights_0"
    },
    {
      "children": [
        20
      ],
      "matrix": [
        100.0,
        0.0,
        0.0,
        0.0,
        0.0,
        -1.629206793918314e-05,
        -99.99999999999868,
        0.0,
        0.0,
        99.99999999999868,
        -1.629206793918314e-05,
        0.0,
        0.0,
        0.0,
        62.90087890625,
        1.0
      ],
      "name": "sci-fi_car_26.008"
    },
    {
      "mesh": 8,
      "name": "sci-fi_car_26.008_silver_0"
    },
    {
      "children": [
        22
      ],
      "matrix": [
        100.0,
        0.0,
        0.0,
        0.0,
        0.0,
        -1.629206793918314e-05,
        -99.99999999999868,
        0.0,
        0.0,
        99.99999999999868,
        -1.629206793918314e-05,
        0.0,
        0.0,
        0.0,
        62.90087890625,
        1.0
      ],
      "name": "sci-fi_car_26.009"
    },
    {
      "mesh": 9,
      "name": "sci-fi_car_26.009_silver_0"
    },
    {
      "children": [
        24
      ],
      "matrix": [
        100.0,
        0.0,
        0.0,
        0.0,
        0.0,
        -1.629206793918314e-05,
        -99.99999999999868,
        0.0,
        0.0,
        99.99999999999868,
        -1.629206793918314e-05,
        0.0,
        0.0,
        0.0,
        62.90087890625,
        1.0
      ],
      "name": "sci-fi_car_26.011"
    },
    {
      "mesh": 10,
      "name": "sci-fi_car_26.011_silver_0"
    }
  ],
  "scene": 0,
  "scenes": [
    {
      "name": "Sketchfab_Scene",
      "nodes": [
        0
      ]
    }
  ]
}
