{
  "accessors": [
    {
      "bufferView": 2,
      "componentType": 5126,
      "count": 846,
      "max": [
        6.302189826965332,
        1.0374900102615356,
        -1.932129979133606
      ],
      "min": [
        -6.302239894866943,
        -153.14724731445313,
        -7.340579986572266
      ],
      "type": "VEC3"
    },
    {
      "bufferView": 2,
      "byteOffset": 10152,
      "componentType": 5126,
      "count": 846,
      "max": [
        0.9990290403366089,
        0.9998012185096741,
        0.9959859251976013
      ],
      "min": [
        -0.9990290403366089,
        -0.995209276676178,
        -0.9998008608818054
      ],
      "type": "VEC3"
    },
    {
      "bufferView": 1,
      "componentType": 5126,
      "count": 846,
      "max": [
        0.9833999872207642,
        -0.10761000216007233
      ],
      "min": [
        -0.03387000039219856,
        -0.9477499723434448
      ],
      "type": "VEC2"
    },
    {
      "bufferView": 0,
      "componentType": 5125,
      "count": 3504,
      "type": "SCALAR"
    },
    {
      "bufferView": 2,
      "byteOffset": 20304,
      "componentType": 5126,
      "count": 1439,
      "max": [
        9.502050399780273,
        -138.98402404785156,
        3.6539599895477295
      ],
      "min": [
        -9.502050399780273,
        -160.0097198486328,
        -10.443949699401855
      ],
      "type": "VEC3"
    },
    {
      "bufferView": 2,
      "byteOffset": 37572,
      "componentType": 5126,
      "count": 1439,
      "max": [
        0.9992867708206177,
        0.9999779462814331,
        0.9826317429542542
      ],
      "min": [
        -0.9992920160293579,
        -0.9960948824882507,
        -0.9993155598640442
      ],
      "type": "VEC3"
    },
    {
      "bufferView": 1,
      "byteOffset": 6768,
      "componentType": 5126,
      "count": 1439,
      "max": [
        0.4770500063896179,
        -0.013910000212490559
      ],
      "min": [
        0.014790000393986702,
        -0.9721699953079224
      ],
      "type": "VEC2"
    },
    {
      "bufferView": 0,
      "byteOffset": 14016,
      "componentType": 5125,
      "count": 6888,
      "type": "SCALAR"
    },
    {
      "bufferView": 2,
      "byteOffset": 54840,
      "componentType": 5126,
      "count": 1979,
      "max": [
        13.128419876098633,
        -137.87013244628906,
        15.194109916687012
      ],
      "min": [
        -12.88914966583252,
        -169.45101928710938,
        -13.67965030670166
      ],
      "type": "VEC3"
    },
    {
      "bufferView": 2,
      "byteOffset": 78588,
      "componentType": 5126,
      "count": 1979,
      "max": [
        0.997968316078186,
        0.996710479259491,
        0.9979672431945801
      ],
      "min": [
        -0.9986759424209595,
        -0.9982665181159973,
        -0.9999426007270813
      ],
      "type": "VEC3"
    },
    {
      "bufferView": 1,
      "byteOffset": 18280,
      "componentType": 5126,
      "count": 1979,
      "max": [
        0.13109999895095825,
        -0.9580100178718567
      ],
      "min": [
        0.10357999801635742,
        -0.9799799919128418
      ],
      "type": "VEC2"
    },
    {
      "bufferView": 0,
      "byteOffset": 41568,
      "componentType": 5125,
      "count": 10542,
      "type": "SCALAR"
    },
    {
      "bufferView": 2,
      "byteOffset": 102336,
      "componentType": 5126,
      "count": 9124,
      "max": [
        62.37519073486328,
        0.7918499708175659,
        58.305641174316406
      ],
      "min": [
        -62.37519073486328,
        -155.230712890625,
        -16.819049835205078
      ],
      "type": "VEC3"
    },
    {
      "bufferView": 2,
      "byteOffset": 211824,
      "componentType": 5126,
      "count": 9124,
      "max": [
        0.9999821186065674,
        0.9999982118606567,
        1.0
      ],
      "min": [
        -0.9999366402626038,
        -0.9999915361404419,
        -1.0
      ],
      "type": "VEC3"
    },
    {
      "bufferView": 1,
      "byteOffset": 34112,
      "componentType": 5126,
      "count": 9124,
      "max": [
        0.9951199889183044,
        -0.008729999884963036
      ],
      "min": [
        0.025510000064969063,
        -0.9965800046920776
      ],
      "type": "VEC2"
    },
    {
      "bufferView": 0,
      "byteOffset": 83736,
      "componentType": 5125,
      "count": 35082,
      "type": "SCALAR"
    }
  ],
  "asset": {
    "extras": {
      "author": "serienreviewer (https://sketchfab.com/serienreviewer)",
      "license": "CC-BY-4.0 (http://creativecommons.org/licenses/by/4.0/)",
      "source": "https://sketchfab.com/3d-models/gaara-ddf17859e3d143a787d4b5346cce3aaf",
      "title": "Gaara"
    },
    "generator": "Sketchfab-12.68.0",
    "version": "2.0"
  },
  "bufferViews": [
    {
      "buffer": 0,
      "byteLength": 224064,
      "name": "floatBufferViews",
      "target": 34963
    },
    {
      "buffer": 0,
      "byteLength": 107104,
      "byteOffset": 224064,
      "byteStride": 8,
      "name": "floatBufferViews",
      "target": 34962
    },
    {
      "buffer": 0,
      "byteLength": 321312,
      "byteOffset": 331168,
      "byteStride": 12,
      "name": "floatBufferViews",
      "target": 34962
    }
  ],
  "buffers": [
    {
      "byteLength": 652480,
      "uri": "scene.bin"
    }
  ],
  "images": [
    {
      "uri": "textures/Scene_-_Root_baseColor.png"
    }
  ],
  "materials": [
    {
      "doubleSided": true,
      "name": "Scene_-_Root",
      "pbrMetallicRoughness": {
        "baseColorTexture": {
          "index": 0
        },
        "metallicFactor": 0.0,
        "roughnessFactor": 0.6
      }
    }
  ],
  "meshes": [
    {
      "name": "Object_0",
      "primitives": [
        {
          "attributes": {
            "NORMAL": 1,
            "POSITION": 0,
            "TEXCOORD_0": 2
          },
          "indices": 3,
          "material": 0,
          "mode": 4
        }
      ]
    },
    {
      "name": "Object_1",
      "primitives": [
        {
          "attributes": {
            "NORMAL": 5,
            "POSITION": 4,
            "TEXCOORD_0": 6
          },
          "indices": 7,
          "material": 0,
          "mode": 4
        }
      ]
    },
    {
      "name": "Object_2",
      "primitives": [
        {
          "attributes": {
            "NORMAL": 9,
            "POSITION": 8,
            "TEXCOORD_0": 10
          },
          "indices": 11,
          "material": 0,
          "mode": 4
        }
      ]
    },
    {
      "name": "Object_3",
      "primitives": [
        {
          "attributes": {
            "NORMAL": 13,
            "POSITION": 12,
            "TEXCOORD_0": 14
          },
          "indices": 15,
          "material": 0,
          "mode": 4
        }
      ]
    }
  ],
  "nodes": [
    {
      "children": [
        1
      ],
      "matrix": [
        1.0,
        0.0,
        0.0,
        0.0,
        0.0,
        -1.0,
        -3.834759027214593e-17,
        0.0,
        0.0,
        3.834759027214593e-17,
        -1.0,
        0.0,
        0.0,
        0.0,
        0.0,
        1.0
      ],
      "name": "Sketchfab_model"
    },
    {
      "children": [
        2,
        3,
        4,
        5
      ],
      "name": "7301b064a17d48a7b6bc1a6c438d8a41.obj.cleaner"
    },
    {
      "mesh": 0,
      "name": "Object_2"
    },
    {
      "mesh": 1,
      "name": "Object_3"
    },
    {
      "mesh": 2,
      "name": "Object_4"
    },
    {
      "mesh": 3,
      "name": "Object_5"
    }
  ],
  "samplers": [
    {
      "magFilter": 9729,
      "minFilter": 9987,
      "wrapS": 10497,
      "wrapT": 10497
    }
  ],
  "scene": 0,
  "scenes": [
    {
      "name": "Sketchfab_Scene",
      "nodes": [
        0
      ]
    }
  ],
  "textures": [
    {
      "sampler": 0,
      "source": 0
    }
  ]
}
